<?xml version="1.0" encoding="UTF-8" standalone="no"?> <svg width="64" height="64" viewBox="0 0 64 64" fill="none" xmlns="http://www.w3.org/2000/svg">
<path d="M25.293 39.293L11.293 53.293C11.2154 53.3707 11.1101 53.4144 11.0003 53.4145C10.8905 53.4146 10.7852 53.3711 10.7075 53.2935C10.6298 53.2159 10.5861 53.1107 10.586 53.0009C10.5859 52.891 10.6294 52.7857 10.707 52.708L12.707 50.708C12.8891 50.5194 12.9899 50.2668 12.9877 50.0046C12.9854 49.7424 12.8802 49.4916 12.6948 49.3062C12.5094 49.1208 12.2586 49.0156 11.9964 49.0133C11.7342 49.011 11.4816 49.1118 11.293 49.294L9.29299 51.294C8.84013 51.7467 8.58567 52.3608 8.58557 53.0011C8.58548 53.6415 8.83976 54.2556 9.29249 54.7085C9.74521 55.1614 10.3593 55.4158 10.9996 55.4159C11.64 55.416 12.2541 55.1617 12.707 54.709L26.707 40.709C26.8891 40.5204 26.9899 40.2678 26.9877 40.0056C26.9854 39.7434 26.8802 39.4926 26.6948 39.3072C26.5094 39.1218 26.2586 39.0166 25.9964 39.0143C25.7342 39.012 25.4816 39.1128 25.293 39.295V39.293Z" fill="black"/>
<path d="M37.293 40.707L51.293 54.707C51.7459 55.1597 52.36 55.414 53.0004 55.4139C53.6407 55.4138 54.2548 55.1593 54.7075 54.7065C55.1602 54.2536 55.4145 53.6395 55.4144 52.9991C55.4143 52.3588 55.1599 51.7447 54.707 51.292L52.707 49.292C52.5184 49.1098 52.2658 49.009 52.0036 49.0113C51.7414 49.0136 51.4906 49.1187 51.3052 49.3041C51.1198 49.4896 51.0146 49.7404 51.0123 50.0026C51.0101 50.2648 51.1109 50.5174 51.293 50.706L53.293 52.706C53.3706 52.7837 53.4141 52.889 53.414 52.9988C53.4139 53.1086 53.3702 53.2139 53.2925 53.2915C53.2148 53.369 53.1095 53.4126 52.9997 53.4125C52.8899 53.4124 52.7846 53.3687 52.707 53.291L38.707 39.291C38.5184 39.1088 38.2658 39.008 38.0036 39.0103C37.7414 39.0126 37.4906 39.1177 37.3052 39.3031C37.1198 39.4886 37.0146 39.7394 37.0123 40.0016C37.0101 40.2638 37.1109 40.5164 37.293 40.705V40.707Z" fill="black"/>
<path d="M60.293 56.293L56.293 60.293C56.1975 60.3853 56.1213 60.4956 56.0689 60.6176C56.0165 60.7396 55.9889 60.8709 55.9877 61.0036C55.9866 61.1364 56.0119 61.2681 56.0622 61.391C56.1124 61.5139 56.1867 61.6255 56.2806 61.7194C56.3745 61.8133 56.4861 61.8876 56.609 61.9379C56.7319 61.9881 56.8636 62.0134 56.9964 62.0123C57.1292 62.0111 57.2604 61.9836 57.3824 61.9311C57.5044 61.8787 57.6147 61.8026 57.707 61.707L61.707 57.707C61.8891 57.5184 61.9899 57.2658 61.9877 57.0036C61.9854 56.7414 61.8802 56.4906 61.6948 56.3052C61.5094 56.1198 61.2586 56.0146 60.9964 56.0124C60.7342 56.0101 60.4816 56.1109 60.293 56.293Z" fill="black"/>
<path d="M6.29301 61.707C6.38526 61.8026 6.4956 61.8787 6.61761 61.9311C6.73961 61.9836 6.87083 62.0111 7.00361 62.0123C7.13639 62.0134 7.26807 61.9881 7.39096 61.9379C7.51386 61.8876 7.62551 61.8133 7.71941 61.7194C7.8133 61.6255 7.88755 61.5139 7.93783 61.391C7.98811 61.2681 8.01342 61.1364 8.01226 61.0036C8.01111 60.8709 7.98352 60.7396 7.93111 60.6176C7.8787 60.4956 7.80252 60.3853 7.70701 60.293L3.70701 56.293C3.51841 56.1109 3.26581 56.0101 3.00361 56.0124C2.74141 56.0146 2.4906 56.1198 2.30519 56.3052C2.11978 56.4906 2.01461 56.7414 2.01234 57.0036C2.01006 57.2658 2.11085 57.5184 2.29301 57.707L6.29301 61.707Z" fill="black"/>
<path d="M56.586 2L51.586 7L33.293 25.293L32 26.586L30.707 25.293L13.874 8.46L12.948 5.684C12.948 5.673 12.936 5.666 12.932 5.656C12.8902 5.54053 12.8275 5.43375 12.747 5.341C12.734 5.327 12.72 5.315 12.706 5.302C12.6172 5.20895 12.5112 5.13391 12.394 5.081L5.39399 2.081C5.21043 2.00249 5.00756 1.98073 4.81152 2.01851C4.61548 2.05629 4.43523 2.15189 4.29399 2.293L2.29399 4.293C2.15289 4.43424 2.05729 4.61449 2.0195 4.81053C1.98172 5.00657 2.00349 5.20943 2.08199 5.393L5.08199 12.393C5.13472 12.5098 5.20941 12.6154 5.30199 12.704C5.31599 12.718 5.32799 12.733 5.34299 12.746C5.43468 12.8261 5.54048 12.8885 5.65499 12.93C5.66599 12.93 5.67299 12.944 5.68499 12.948L8.46099 13.873L25.861 31.273C25.6928 31.7755 25.3711 32.2126 24.9412 32.5224C24.5113 32.8323 23.9949 32.9993 23.465 33C22.8691 32.9981 22.2787 33.1147 21.7282 33.3428C21.1777 33.5709 20.6779 33.9062 20.258 34.329L5.29299 49.293C4.35533 50.2307 3.82856 51.5024 3.82856 52.8285C3.82856 54.1546 4.35533 55.4263 5.29299 56.364L7.63599 58.707C8.57445 59.6432 9.84591 60.169 11.1715 60.169C12.4971 60.169 13.7685 59.6432 14.707 58.707L29.672 43.743C30.0943 43.3227 30.4291 42.8229 30.657 42.2724C30.885 41.722 31.0015 41.1318 31 40.536C31.0036 40.1477 31.0964 39.7654 31.2711 39.4186C31.4459 39.0719 31.698 38.7699 32.008 38.536C32.3156 38.771 32.5651 39.0736 32.7371 39.4204C32.9092 39.7672 32.9991 40.1489 33 40.536C32.9984 41.1318 33.115 41.722 33.343 42.2724C33.5709 42.8229 33.9057 43.3227 34.328 43.743L49.293 58.707C50.2314 59.6432 51.5029 60.169 52.8285 60.169C54.1541 60.169 55.4255 59.6432 56.364 58.707L58.707 56.364C59.6447 55.4263 60.1714 54.1546 60.1714 52.8285C60.1714 51.5024 59.6447 50.2307 58.707 49.293L43.742 34.329C43.3221 33.9062 42.8223 33.5709 42.2718 33.3428C41.7213 33.1147 41.1309 32.9981 40.535 33C40.0055 32.9981 39.4901 32.8301 39.0611 32.5197C38.6322 32.2094 38.3114 31.7723 38.144 31.27L57 12.414L62 7.414V2H56.586ZM27.986 30.575C27.986 30.537 27.997 30.502 27.997 30.464V29.414L29.997 27.414L30.583 28L28 30.586L27.986 30.575ZM5.22899 4.186L10.248 6.337L6.33699 10.248L4.18599 5.229L5.22899 4.186ZM9.31599 12.051L7.85099 11.563L11.563 7.851L12.052 9.316C12.1013 9.4631 12.1837 9.59688 12.293 9.707L28.586 26L26.293 28.293C26.1928 28.3958 26.1163 28.5194 26.069 28.655L9.70699 12.293C9.59723 12.1831 9.46336 12.1002 9.31599 12.051V12.051ZM29 40.536C29.0008 40.869 28.9356 41.199 28.8083 41.5067C28.6809 41.8144 28.4939 42.0939 28.258 42.329L13.293 57.293C12.7297 57.8545 11.9668 58.1698 11.1715 58.1698C10.3762 58.1698 9.61327 57.8545 9.04999 57.293L6.70699 54.95C6.42836 54.6714 6.20734 54.3407 6.05654 53.9767C5.90575 53.6127 5.82813 53.2225 5.82813 52.8285C5.82813 52.4345 5.90575 52.0443 6.05654 51.6803C6.20734 51.3163 6.42836 50.9856 6.70699 50.707L21.672 35.743C21.9069 35.5068 22.1863 35.3195 22.4941 35.192C22.8019 35.0644 23.1319 34.9992 23.465 35C24.077 35.0003 24.6827 34.8758 25.245 34.634C25.2595 34.6593 25.2755 34.6837 25.293 34.707L28.293 37.707C28.4805 37.8946 28.7348 37.9999 29 38H29.79C29.2791 38.7474 29.0039 39.6307 29 40.536V40.536ZM40.535 35C40.8681 34.9992 41.1981 35.0644 41.5059 35.192C41.8137 35.3195 42.0931 35.5068 42.328 35.743L57.293 50.707C57.5716 50.9856 57.7926 51.3163 57.9434 51.6803C58.0942 52.0443 58.1719 52.4345 58.1719 52.8285C58.1719 53.2225 58.0942 53.6127 57.9434 53.9767C57.7926 54.3407 57.5716 54.6714 57.293 54.95L54.95 57.293C54.3867 57.8545 53.6238 58.1698 52.8285 58.1698C52.0332 58.1698 51.2703 57.8545 50.707 57.293L35.742 42.329C35.5061 42.0939 35.3191 41.8144 35.1917 41.5067C35.0644 41.199 34.9992 40.869 35 40.536C34.9989 39.3335 34.5208 38.1805 33.6706 37.3301C32.8204 36.4797 31.6675 36.0013 30.465 36H29.414L27.414 34L28.707 32.707L32.707 28.707L34 27.414L36 29.414V30.464C36.0011 31.6665 36.4792 32.8195 37.3294 33.6699C38.1796 34.5203 39.3325 34.9987 40.535 35V35ZM37.935 28.655C37.8877 28.5194 37.8112 28.3958 37.711 28.293L35.414 26L53 8.414L55.586 11L37.935 28.655ZM57 9.586L54.414 7L57.414 4H58.586L56.293 6.293L57.707 7.707L60 5.414V6.586L57 9.586Z" fill="black"/>
</svg>
